{"title":"EdÃƒÂ©n al Quest aka Eden At The West.[x264][AC3].mkv","uid":5293505,"size":1848795581,"categoryP":"video","categoryS":"movies","magnet":"?xt=urn:btih:6450e26d53c784d37626e4f3dc409b6001508087&amp;dn=Ed%C3%83%C2%A9n+al+Quest+aka+Eden+At+The+West.%5Bx264%5D%5BAC3%5D.mkv&amp;tr=udp%3A%2F%2Ftracker.openbittorrent.com%3A80&amp;tr=udp%3A%2F%2Fopen.demonii.com%3A1337&amp;tr=udp%3A%2F%2Ftracker.coppersurfer.tk%3A6969&amp;tr=udp%3A%2F%2Fexodus.desync.com%3A6969","seeders":0,"leechers":2,"uploader":"Zen_Bud","files":-1,"time":1263981730,"description":"General\nComplete name                    : Eden ÃƒÂ  l'Ouest .mkv\nFormat                           : Matroska\nFile size                        : 1.72 GiB\nDuration                         : 1h 46mn\nOverall bit rate                 : 2 324 Kbps\n\n\nVideo\nID                               : 1\nFormat                           : AVC\nDuration                         : 1h 46mn\nBit rate                         : 1 830 Kbps\nWidth                            : 720 pixels\nHeight                           : 436 pixels\nDisplay aspect ratio             : 2.35:1\nFrame rate                       : 25.000 fps\nResolution                       : 8 bits\nColorimetry                      : 4:2:0\nScan type                        : Progressive\nBits/(Pixel*Frame)               : 0.233\nStream size                      : 1.36 GiB (79%)\nWriting library                  : x264 core 79\n\n\nAudio\nID                               : 2\nFormat                           : AC-3\nFormat/Info                      : Audio Coding 3\nCodec ID                         : A_AC3\nDuration                         : 1h 46mn\nBit rate mode                    : Constant\nBit rate                         : 448 Kbps\nChannel(s)                       : 6 channels\nChannel positions                : Front: L C R, Surround: L R, LFE\nSampling rate                    : 48.0 KHz\nStream size                      : 340 MiB (19%)\nLanguage                         : French\n\nText #1\nLanguage                         : Danish\n\nText #2\nLanguage                         : Swedish\n\nText #3\nLanguage                         : Norwegian\n\nText #4\nLanguage                         : Finnish\n\n","torrent":{"xt":"urn:btih:6450e26d53c784d37626e4f3dc409b6001508087","amp;dn":"Ed%C3%83%C2%A9n+al+Quest+aka+Eden+At+The+West.%5Bx264%5D%5BAC3%5D.mkv","amp;tr":["udp%3A%2F%2Ftracker.openbittorrent.com%3A80","udp%3A%2F%2Fopen.demonii.com%3A1337","udp%3A%2F%2Ftracker.coppersurfer.tk%3A6969","udp%3A%2F%2Fexodus.desync.com%3A6969"],"infoHash":"6450e26d53c784d37626e4f3dc409b6001508087","infoHashBuffer":{"type":"Buffer","data":[100,80,226,109,83,199,132,211,118,38,228,243,220,64,155,96,1,80,128,135]},"announce":[],"urlList":[]}}